<svg width="29" height="30" viewBox="0 0 29 30" fill="none" xmlns="http://www.w3.org/2000/svg">
<g filter="url(#filter0_d_70_19656)">
<path d="M12 2C9.38 2 7.25 4.13 7.25 6.75C7.25 9.32 9.26 11.4 11.88 11.49C11.96 11.48 12.04 11.48 12.1 11.49C12.12 11.49 12.13 11.49 12.15 11.49C12.16 11.49 12.16 11.49 12.17 11.49C14.73 11.4 16.74 9.32 16.75 6.75C16.75 4.13 14.62 2 12 2Z" fill="white"/>
<path d="M17.08 14.1499C14.29 12.2899 9.73996 12.2899 6.92996 14.1499C5.65996 14.9999 4.95996 16.1499 4.95996 17.3799C4.95996 18.6099 5.65996 19.7499 6.91996 20.5899C8.31996 21.5299 10.16 21.9999 12 21.9999C13.84 21.9999 15.68 21.5299 17.08 20.5899C18.34 19.7399 19.04 18.5999 19.04 17.3599C19.03 16.1299 18.34 14.9899 17.08 14.1499Z" fill="white"/>
<path d="M22.9904 7.3401C23.1504 9.2801 21.7704 10.9801 19.8604 11.2101C19.8504 11.2101 19.8504 11.2101 19.8404 11.2101H19.8104C19.7504 11.2101 19.6904 11.2101 19.6404 11.2301C18.6704 11.2801 17.7804 10.9701 17.1104 10.4001C18.1404 9.4801 18.7304 8.1001 18.6104 6.6001C18.5404 5.7901 18.2604 5.0501 17.8404 4.4201C18.2204 4.2301 18.6604 4.1101 19.1104 4.0701C21.0704 3.9001 22.8204 5.3601 22.9904 7.3401Z" fill="white"/>
<path d="M24.9902 16.5899C24.9102 17.5599 24.2902 18.3999 23.2502 18.9699C22.2502 19.5199 20.9902 19.7799 19.7402 19.7499C20.4602 19.0999 20.8802 18.2899 20.9602 17.4299C21.0602 16.1899 20.4702 14.9999 19.2902 14.0499C18.6202 13.5199 17.8402 13.0999 16.9902 12.7899C19.2002 12.1499 21.9802 12.5799 23.6902 13.9599C24.6102 14.6999 25.0802 15.6299 24.9902 16.5899Z" fill="white"/>
</g>
<defs>
<filter id="filter0_d_70_19656" x="-1" y="0" width="32" height="32" filterUnits="userSpaceOnUse" color-interpolation-filters="sRGB">
<feFlood flood-opacity="0" result="BackgroundImageFix"/>
<feColorMatrix in="SourceAlpha" type="matrix" values="0 0 0 0 0 0 0 0 0 0 0 0 0 0 0 0 0 0 127 0" result="hardAlpha"/>
<feOffset dy="4"/>
<feGaussianBlur stdDeviation="2"/>
<feComposite in2="hardAlpha" operator="out"/>
<feColorMatrix type="matrix" values="0 0 0 0 0 0 0 0 0 0 0 0 0 0 0 0 0 0 0.25 0"/>
<feBlend mode="normal" in2="BackgroundImageFix" result="effect1_dropShadow_70_19656"/>
<feBlend mode="normal" in="SourceGraphic" in2="effect1_dropShadow_70_19656" result="shape"/>
</filter>
</defs>
</svg>
