<svg width="20" height="20" viewBox="0 0 20 20" fill="none" xmlns="http://www.w3.org/2000/svg">
<path d="M14.19 0H5.81C2.17 0 0 2.17 0 5.81V14.19C0 17 1.29 18.93 3.56 19.66C4.22 19.89 4.98 20 5.81 20H14.19C15.02 20 15.78 19.89 16.44 19.66C18.71 18.93 20 17 20 14.19V5.81C20 2.17 17.83 0 14.19 0ZM18.5 14.19C18.5 16.33 17.66 17.68 15.97 18.24C15 16.33 12.7 14.97 10 14.97C7.3 14.97 5.01 16.32 4.03 18.24H4.02C2.35 17.7 1.5 16.34 1.5 14.2V5.81C1.5 2.99 2.99 1.5 5.81 1.5H14.19C17.01 1.5 18.5 2.99 18.5 5.81V14.19Z" fill="#292D32"/>
<path d="M12.97 7.33C12.25 6.51 11.18 6 10 6C8.88 6 7.86 6.46 7.13 7.21C6.71 7.64 6.39 8.16 6.2 8.74C6.07 9.14 6 9.56 6 10C6 10.75 6.21 11.46 6.58 12.06C6.78 12.4 7.04 12.71 7.34 12.97C8.04 13.61 8.97 14 10 14C10.44 14 10.86 13.93 11.25 13.79C12.17 13.5 12.94 12.87 13.42 12.06C13.63 11.72 13.79 11.33 13.88 10.93C13.96 10.63 14 10.32 14 10C14 8.98 13.61 8.04 12.97 7.33ZM11.49 10.73H10.75V11.51C10.75 11.92 10.41 12.26 10 12.26C9.59 12.26 9.25 11.92 9.25 11.51V10.73H8.51C8.1 10.73 7.76 10.39 7.76 9.98C7.76 9.57 8.1 9.23 8.51 9.23H9.25V8.52C9.25 8.11 9.59 7.77 10 7.77C10.41 7.77 10.75 8.11 10.75 8.52V9.23H11.49C11.9 9.23 12.24 9.57 12.24 9.98C12.24 10.39 11.91 10.73 11.49 10.73Z" fill="#292D32"/>
</svg>
