<svg width="20" height="20" viewBox="0 0 20 20" fill="none" xmlns="http://www.w3.org/2000/svg">
<path d="M13.4917 1.66675H6.50841C3.47508 1.66675 1.66675 3.47508 1.66675 6.50841V13.4834C1.66675 16.5251 3.47508 18.3334 6.50841 18.3334H13.4834C16.5167 18.3334 18.3251 16.5251 18.3251 13.4917V6.50841C18.3334 3.47508 16.5251 1.66675 13.4917 1.66675ZM12.3251 10.4417L9.38341 13.3834C9.25841 13.5084 9.10008 13.5667 8.94175 13.5667C8.78341 13.5667 8.62508 13.5084 8.50008 13.3834C8.25841 13.1417 8.25841 12.7417 8.50008 12.5001L11.0001 10.0001L8.50008 7.50008C8.25841 7.25841 8.25841 6.85842 8.50008 6.61675C8.74175 6.37508 9.14175 6.37508 9.38341 6.61675L12.3251 9.55842C12.5751 9.80008 12.5751 10.2001 12.3251 10.4417Z" fill="#E5E7EF"/>
</svg>
