<svg width="18" height="18" viewBox="0 0 18 18" fill="none" xmlns="http://www.w3.org/2000/svg">
<path d="M14.43 4.18498H14.13L11.595 1.64998C11.3925 1.44748 11.0625 1.44748 10.8525 1.64998C10.65 1.85248 10.65 2.18248 10.8525 2.39248L12.645 4.18498H5.355L7.1475 2.39248C7.35 2.18998 7.35 1.85998 7.1475 1.64998C6.945 1.44748 6.615 1.44748 6.405 1.64998L3.8775 4.18498H3.5775C2.9025 4.18498 1.5 4.18498 1.5 6.10498C1.5 6.83248 1.65 7.31248 1.965 7.62748C2.145 7.81498 2.3625 7.91248 2.595 7.96498C2.8125 8.01748 3.045 8.02498 3.27 8.02498H14.73C14.9625 8.02498 15.18 8.00998 15.39 7.96498C16.02 7.81498 16.5 7.36498 16.5 6.10498C16.5 4.18498 15.0975 4.18498 14.43 4.18498Z" fill="#E5E7EF"/>
<path d="M14.2875 9H3.65249C3.18749 9 2.83499 9.4125 2.90999 9.87L3.53999 13.725C3.74999 15.015 4.31249 16.5 6.80999 16.5H11.0175C13.545 16.5 13.995 15.2325 14.265 13.815L15.0225 9.8925C15.1125 9.4275 14.76 9 14.2875 9ZM7.95749 13.8375C7.95749 14.13 7.72499 14.3625 7.43999 14.3625C7.14749 14.3625 6.91499 14.13 6.91499 13.8375V11.3625C6.91499 11.0775 7.14749 10.8375 7.43999 10.8375C7.72499 10.8375 7.95749 11.0775 7.95749 11.3625V13.8375ZM11.1675 13.8375C11.1675 14.13 10.935 14.3625 10.6425 14.3625C10.3575 14.3625 10.1175 14.13 10.1175 13.8375V11.3625C10.1175 11.0775 10.3575 10.8375 10.6425 10.8375C10.935 10.8375 11.1675 11.0775 11.1675 11.3625V13.8375Z" fill="#E5E7EF"/>
</svg>
