<svg width="12" height="12" viewBox="0 0 12 12" fill="none" xmlns="http://www.w3.org/2000/svg">
<path d="M8.5 2H3.5C2 2 1 2.75 1 4.5V8C1 9.75 2 10.5 3.5 10.5H8.5C10 10.5 11 9.75 11 8V4.5C11 2.75 10 2 8.5 2ZM3.375 8.25C3.375 8.455 3.205 8.625 3 8.625C2.795 8.625 2.625 8.455 2.625 8.25V4.25C2.625 4.045 2.795 3.875 3 3.875C3.205 3.875 3.375 4.045 3.375 4.25V8.25ZM4.875 8.25C4.875 8.455 4.705 8.625 4.5 8.625C4.295 8.625 4.125 8.455 4.125 8.25V7.75C4.125 7.545 4.295 7.375 4.5 7.375C4.705 7.375 4.875 7.545 4.875 7.75V8.25ZM4.875 6.25C4.875 6.455 4.705 6.625 4.5 6.625C4.295 6.625 4.125 6.455 4.125 6.25V4.25C4.125 4.045 4.295 3.875 4.5 3.875C4.705 3.875 4.875 4.045 4.875 4.25V6.25ZM6.375 8.25C6.375 8.455 6.205 8.625 6 8.625C5.795 8.625 5.625 8.455 5.625 8.25V4.25C5.625 4.045 5.795 3.875 6 3.875C6.205 3.875 6.375 4.045 6.375 4.25V8.25ZM7.875 8.25C7.875 8.455 7.705 8.625 7.5 8.625C7.295 8.625 7.125 8.455 7.125 8.25V6.25C7.125 6.045 7.295 5.875 7.5 5.875C7.705 5.875 7.875 6.045 7.875 6.25V8.25ZM7.875 4.75C7.875 4.955 7.705 5.125 7.5 5.125C7.295 5.125 7.125 4.955 7.125 4.75V4.25C7.125 4.045 7.295 3.875 7.5 3.875C7.705 3.875 7.875 4.045 7.875 4.25V4.75ZM9.375 8.25C9.375 8.455 9.205 8.625 9 8.625C8.795 8.625 8.625 8.455 8.625 8.25V4.25C8.625 4.045 8.795 3.875 9 3.875C9.205 3.875 9.375 4.045 9.375 4.25V8.25Z" fill="white"/>
</svg>
