<svg width="56" height="56" viewBox="0 0 56 56" fill="none" xmlns="http://www.w3.org/2000/svg">
<path d="M52.3166 21.2518C51.3792 20.8648 50.1388 20.6729 48.5955 20.6729H34.0416C29.2455 20.6729 27.5364 22.3796 27.5364 27.232V48.5667C27.5364 50.1643 27.7292 51.4046 28.1427 52.3705C28.9974 54.3551 30.8166 55.1258 34.0416 55.1258H48.5955C53.3916 55.1258 55.1004 53.3893 55.1004 48.5667V27.232C55.1004 23.9508 54.3287 22.1051 52.3166 21.2518ZM44.0748 48.9239H38.5619C38.507 48.9239 38.4243 48.9239 38.3691 48.8975C37.9556 48.871 37.5974 48.732 37.2941 48.4574C36.7979 48.0969 36.4946 47.5181 36.4946 46.8566C36.4946 45.7287 37.432 44.7893 38.5619 44.7893H44.0748C45.2051 44.7893 46.1421 45.7287 46.1421 46.8566C46.1421 47.9878 45.2051 48.9239 44.0748 48.9239Z" fill="white"/>
<path d="M52.3168 11.5471V13.7799C52.3168 15.2981 51.0764 16.5385 49.5605 16.5385H34.0418C26.9855 16.5385 23.4019 20.1472 23.4019 27.2322V52.3707C23.4019 53.8856 22.1615 55.126 20.6456 55.126H15.2706C14.1682 55.126 13.286 54.2462 13.286 53.1712C13.286 52.0664 14.1682 51.213 15.2706 51.213H20.6456V40.6549H10.9981C4.87885 40.3539 0 35.3097 0 29.1078V11.5471C0 5.17984 5.18216 0 11.5769 0H40.7673C47.1346 0 52.3168 5.17984 52.3168 11.5471Z" fill="white"/>
</svg>
