<svg width="56" height="57" viewBox="0 0 56 57" fill="none" xmlns="http://www.w3.org/2000/svg">
<path d="M42.8209 15.9034C42.6277 15.877 42.4349 15.877 42.242 15.9034C37.9695 15.7645 34.5791 12.265 34.5791 7.96499C34.5791 3.5823 38.1349 0 42.545 0C46.9277 0 50.5113 3.55584 50.5113 7.96499C50.4835 12.265 47.0931 15.7645 42.8209 15.9034Z" fill="white"/>
<path d="M51.8062 35.0046C48.7191 37.0719 44.3917 37.8426 40.3947 37.32C41.4422 35.0609 41.9936 32.5503 42.0211 29.9042C42.0211 27.1489 41.4148 24.5291 40.2571 22.2435C44.3365 21.6911 48.6639 22.4619 51.7788 24.5292C56.134 27.3969 56.134 32.1104 51.8062 35.0046Z" fill="white"/>
<path d="M12.2523 15.9034C12.4451 15.877 12.6383 15.877 12.8311 15.9034C17.1037 15.7645 20.4941 12.265 20.4941 7.96499C20.4941 3.55584 16.9383 0 12.5278 0C8.14513 0 4.58936 3.55584 4.58936 7.96499C4.58936 12.265 7.97974 15.7645 12.2523 15.9034Z" fill="white"/>
<path d="M12.5554 29.9048C12.5554 32.5807 13.1343 35.1144 14.1818 37.4033C10.2953 37.8168 6.24335 36.9898 3.26643 35.0317C-1.08881 32.1374 -1.08881 27.424 3.26643 24.5298C6.2159 22.5452 10.378 21.748 14.292 22.1879C13.1621 24.5033 12.5554 27.123 12.5554 29.9048Z" fill="white"/>
<path d="M27.9085 38.2295C27.6879 38.2031 27.4398 38.2031 27.1917 38.2295C22.12 38.0641 18.0681 33.9031 18.0681 28.7761C18.0956 23.5368 22.3129 19.293 27.5777 19.293C32.8148 19.293 37.0599 23.5368 37.0599 28.7761C37.0321 33.9031 33.008 38.0641 27.9085 38.2295Z" fill="white"/>
<path d="M18.9504 43.9352C14.7883 46.7202 14.7883 51.2947 18.9504 54.05C23.6917 57.2221 31.4647 57.2221 36.2056 54.05C40.3677 51.2683 40.3677 46.6905 36.2056 43.9352C31.4922 40.7664 23.7191 40.7664 18.9504 43.9352Z" fill="white"/>
</svg>
