<svg width="24" height="24" viewBox="0 0 24 24" fill="none" xmlns="http://www.w3.org/2000/svg">
<path fill-rule="evenodd" clip-rule="evenodd" d="M6.976 2C4.22783 2 2 4.22783 2 6.976C2 9.72417 4.22783 11.952 6.976 11.952C9.72417 11.952 11.952 9.72417 11.952 6.976C11.952 4.22783 9.72417 2 6.976 2ZM6.82847 3.40654C6.77783 3.41505 6.72813 3.41287 6.67936 3.4L6.52496 3.40654L6.36153 3.41432L6.35375 3.41681L6.34659 3.546C6.34647 3.54795 6.3459 3.54985 6.34492 3.55158C6.34395 3.55331 6.34259 3.55483 6.34093 3.55606C6.33926 3.55728 6.33734 3.55818 6.33526 3.5587C6.33318 3.55922 6.331 3.55934 6.32885 3.55907C6.28423 3.55367 6.24366 3.56291 6.20713 3.58677C6.19468 3.68784 6.19427 3.78901 6.20589 3.89028C6.21419 3.88883 6.24013 3.89142 6.28371 3.89806C6.35801 3.90948 6.37959 3.9541 6.34846 4.03192L6.36278 4.17823L6.48387 4.20157C6.48935 4.20264 6.49429 4.20514 6.49786 4.20866C6.50143 4.21217 6.50342 4.21649 6.50348 4.22087L6.50815 4.65294C6.52247 4.85466 6.52257 5.05627 6.50846 5.25778C6.5082 5.26221 6.50639 5.26639 6.50337 5.26958C6.50034 5.27278 6.4963 5.27477 6.49196 5.27521C6.4019 5.28393 6.31484 5.28196 6.23079 5.2693C6.22581 5.26851 6.22108 5.26656 6.21699 5.26361C6.21291 5.26065 6.20959 5.25677 6.2073 5.2523C6.20502 5.24783 6.20384 5.24288 6.20387 5.23788C6.20389 5.23288 6.20512 5.22796 6.20744 5.22354C6.22363 5.19283 6.22311 5.16388 6.20589 5.13669L6.0269 5.11863L5.93133 5.11988C5.78689 5.12901 5.67099 5.08086 5.58362 4.97544C5.44748 4.97233 5.31165 4.96652 5.17614 4.95801C5.08856 4.95261 4.99694 4.95334 4.90127 4.96019C4.80975 4.96683 4.71802 4.97119 4.62609 4.97326C4.67092 5.09736 4.62682 5.14063 4.49379 5.10307L4.34717 5.12766C4.32933 5.15838 4.3203 5.19148 4.32009 5.22696C4.32009 5.23209 4.31897 5.23702 4.31684 5.24127C4.31471 5.24552 4.31165 5.24896 4.30795 5.25124C4.27309 5.27324 4.23386 5.27573 4.19028 5.25872C4.16268 5.27802 4.12896 5.28621 4.08911 5.28331C4.05985 5.28102 4.0365 5.29182 4.01907 5.31568C4.02696 5.35947 4.02136 5.40056 4.00226 5.43895C4.01804 5.54396 3.97217 5.59584 3.86467 5.5946L3.86218 5.61016C3.87111 5.65644 3.86592 5.70054 3.84662 5.74246C3.87567 5.81219 3.86011 5.86189 3.79992 5.89157C3.79612 5.89353 3.79165 5.89454 3.78681 5.89454C3.78197 5.89454 3.77688 5.89353 3.77191 5.89157C3.74368 5.88015 3.72532 5.89012 3.71681 5.92145L3.71432 6.06932V6.22496V6.38061L3.70654 6.53625C3.72003 6.6919 3.72003 6.84754 3.70654 7.00319C3.71691 7.10238 3.71473 7.20138 3.7 7.30016L3.70654 7.45456L3.72459 7.61799L3.83105 7.63199C3.8361 7.6327 3.84075 7.63489 3.84425 7.63822C3.84775 7.64155 3.8499 7.64583 3.85035 7.65036L3.86218 7.77363C3.86343 7.7784 3.86644 7.78141 3.87121 7.78266C3.89342 7.78681 3.91572 7.79034 3.93814 7.79324C3.96844 7.79698 3.9896 7.80393 4.00164 7.8141C4.02281 7.83236 4.03007 7.85757 4.02343 7.88974C4.02322 7.89078 4.02053 7.89742 4.01534 7.90966C4.00953 7.92336 4.01855 7.93031 4.04242 7.93052C4.16963 7.9106 4.21114 7.95906 4.16694 8.07589L4.49379 8.09395L5.47436 8.08617L5.55996 8.08368C5.58403 8.04757 5.61703 8.02899 5.65895 8.02796C5.66992 8.02775 5.68006 8.02495 5.68821 8.01986C5.74715 7.98334 5.81076 7.95874 5.87903 7.94609L6.05024 7.92025C6.06207 7.88393 6.0629 7.84793 6.05273 7.81223C6.05198 7.80973 6.05182 7.80708 6.05225 7.8045C6.05268 7.80192 6.05369 7.79946 6.05522 7.79731C6.05674 7.79515 6.05874 7.79336 6.06106 7.79207C6.06337 7.79077 6.06596 7.79 6.06861 7.78982L6.19811 7.78141C6.2392 7.76668 6.24833 7.74395 6.2255 7.71324C6.22208 7.70875 6.21951 7.70403 6.21795 7.69941C6.21639 7.69479 6.21589 7.69038 6.21647 7.68647C6.22125 7.65513 6.24366 7.63749 6.28371 7.63355C6.33725 7.62836 6.37098 7.62618 6.38488 7.62701L6.48854 7.62795C6.49262 7.62803 6.49651 7.6301 6.49937 7.63371C6.50222 7.63732 6.50381 7.64218 6.50379 7.64725L6.51593 8.54407L6.50815 10.2717L6.51064 10.3885C6.51604 10.4053 6.53316 10.4137 6.562 10.4137C6.67262 10.4135 6.70437 10.4669 6.65726 10.574H7.28762C7.3009 10.562 7.30443 10.5367 7.29821 10.4984C7.29746 10.4938 7.29769 10.4892 7.29887 10.4847C7.30005 10.4802 7.30216 10.4761 7.30506 10.4725C7.30796 10.4689 7.3116 10.4659 7.31572 10.4637C7.31985 10.4616 7.32438 10.4604 7.32902 10.4601L7.45105 10.452L7.60545 10.4274L7.60483 10.1024C7.47222 10.1379 7.42397 10.0906 7.46008 9.96045C7.44576 9.91126 7.44576 9.86197 7.46008 9.81258C7.44555 9.75821 7.44555 9.70373 7.46008 9.64916L7.4523 9.50129L7.46008 9.3223C7.42023 9.19156 7.46651 9.14528 7.59891 9.18347L7.76234 9.17568H7.92577L8.09791 9.17693L8.24484 9.17568L8.38492 9.18347C8.49989 9.15898 8.547 9.20204 8.52625 9.31265C8.52545 9.31679 8.52317 9.32053 8.51977 9.32325C8.51637 9.32597 8.51206 9.3275 8.50757 9.32759L8.38617 9.33008L8.39395 9.79702L8.54057 9.79826L9.01902 9.79951L9.15786 9.79702L9.48222 9.78799L9.4844 9.67468C9.48447 9.67006 9.48597 9.6656 9.48867 9.662C9.49137 9.6584 9.49512 9.65586 9.49934 9.65476C9.5423 9.64397 9.58588 9.6421 9.63008 9.64916L9.63911 9.33008L9.63662 9.3223C9.49945 9.3665 9.44839 9.31722 9.48347 9.17444L9.47568 9.01101L9.48347 8.85536C9.46852 8.7543 9.46852 8.65313 9.48347 8.55186C9.48222 8.54708 9.47921 8.54407 9.47444 8.54283C9.42007 8.55466 9.36559 8.55466 9.31101 8.54283C9.26722 8.55632 9.22312 8.55632 9.17871 8.54283H9.03085H8.8752H8.71178L8.37714 8.5531L8.38523 8.67606C8.3856 8.6805 8.38427 8.68495 8.38148 8.68865C8.37869 8.69234 8.37462 8.69505 8.36998 8.6963C8.32349 8.70895 8.27659 8.70968 8.22928 8.69847L8.06585 8.70626L7.76234 8.69847L7.48031 8.70221C7.47568 8.7023 7.47112 8.70088 7.46726 8.69814C7.46341 8.6954 7.46046 8.69149 7.45883 8.68696C7.44451 8.64545 7.44493 8.60301 7.46008 8.55964L7.4523 7.60242C7.42449 7.47313 7.47595 7.42945 7.6067 7.47137C7.74366 7.43484 7.79295 7.4833 7.75456 7.61674L7.92266 7.61767L8.0892 7.62701H8.24484H8.3927C8.43836 7.61767 8.48277 7.62058 8.52594 7.63573C8.53035 7.6373 8.53421 7.64011 8.53703 7.64382C8.53985 7.64752 8.54152 7.65196 8.54181 7.65659L8.54835 7.77239H8.84408L8.84719 7.65098C8.84738 7.64615 8.8488 7.64157 8.85126 7.63789C8.85371 7.6342 8.85708 7.6316 8.86088 7.63044C8.90924 7.61549 8.95811 7.61435 9.0075 7.62701H9.15537H9.44331C9.4485 7.62535 9.45369 7.62535 9.45887 7.62701L9.60082 7.59806C9.60545 7.59712 9.60966 7.595 9.61293 7.59195C9.6162 7.5889 9.61838 7.58507 9.61919 7.58094C9.63475 7.50457 9.68186 7.45985 9.76051 7.44678C9.76488 7.44603 9.76889 7.44395 9.77196 7.44081C9.77504 7.43768 9.77703 7.43366 9.77764 7.42934C9.78739 7.35505 9.82838 7.31168 9.9006 7.29922C9.90539 7.29837 9.9099 7.29639 9.91375 7.29347C9.91759 7.29054 9.92066 7.28675 9.9227 7.28241L9.97375 7.1744C9.99139 7.10571 10.0299 7.05164 10.0892 7.01221C10.1013 6.97382 10.1109 6.93481 10.1182 6.89517C10.1255 6.85491 10.1511 6.83374 10.1951 6.83167C10.1995 6.83148 10.2038 6.82982 10.2071 6.82694C10.2105 6.82406 10.2129 6.82014 10.2138 6.81579C10.2461 6.66762 10.2595 6.51737 10.2539 6.36504V6.20161L10.2604 6.06278C10.2474 6.01525 10.2474 5.96773 10.2604 5.92021V5.75678L10.2539 5.61016L10.2514 5.43895C10.1248 5.46157 10.0785 5.41011 10.1126 5.28455L10.0958 5.13544L9.96628 5.12019C9.96168 5.11969 9.95741 5.11764 9.95422 5.11439C9.95103 5.11115 9.94913 5.10692 9.94885 5.10245L9.94137 4.98104C9.93473 4.97503 9.92695 4.9716 9.91803 4.97077L9.78573 4.96299C9.64503 5.00719 9.59574 4.95873 9.63787 4.81762L9.45234 4.80859L9.31879 4.80734H9.14758L8.8752 4.81513H8.69621L8.5471 4.80859L8.3927 4.80734L8.22149 4.81762C8.2574 4.95292 8.20811 5.00138 8.07363 4.96299C8.02154 4.97627 7.96966 4.97627 7.91799 4.96299L7.76234 4.98104V5.09996C7.76237 5.10489 7.76076 5.10962 7.75785 5.11317C7.75495 5.11671 7.75098 5.11878 7.74678 5.11895L7.62226 5.12642C7.6069 5.13451 7.60171 5.15049 7.6067 5.17436C7.62226 5.24844 7.58708 5.28227 7.50117 5.27584C7.49403 5.27532 7.48707 5.27349 7.48067 5.27048C7.47427 5.26746 7.46857 5.26331 7.46391 5.25827C7.45924 5.25323 7.4557 5.24739 7.4535 5.24111C7.45129 5.23483 7.45046 5.22822 7.45105 5.22167L7.46008 5.12766L7.4523 4.53621V3.57121L7.44981 3.41556L7.29416 3.4C7.25784 3.41183 7.22101 3.41702 7.18365 3.41556L7.08373 3.41183C6.99864 3.41453 6.91356 3.41276 6.82847 3.40654ZM7.94756 5.46043L8.05589 5.45732C8.26839 5.43283 8.48246 5.42941 8.69808 5.44705C8.73419 5.43584 8.78088 5.43802 8.83816 5.45358C8.84241 5.45473 8.84621 5.45759 8.84901 5.46173C8.85181 5.46587 8.85346 5.47109 8.85372 5.47662L8.85964 5.58682L8.9633 5.59429C8.97314 5.59497 8.98236 5.59801 8.98919 5.60284C8.99602 5.60766 8.99999 5.61392 9.00034 5.62043L9.00626 5.73468L9.00875 5.74246C9.13555 5.72212 9.18141 5.774 9.14634 5.89811L9.15412 6.06932C9.16844 6.27414 9.16844 6.47908 9.15412 6.68411L9.15474 6.78404C9.15481 6.79072 9.15345 6.79735 9.15076 6.80351C9.14806 6.80966 9.14408 6.81522 9.13906 6.81983C9.13404 6.82444 9.12809 6.828 9.12158 6.83031C9.11507 6.83261 9.10813 6.8336 9.1012 6.83322C9.05119 6.83052 9.02037 6.84308 9.00875 6.87089L9.00781 6.96365C9.00773 6.96894 9.00599 6.97398 9.00293 6.97778C8.99988 6.98158 8.99574 6.98387 8.99132 6.9842L8.85964 6.9954L8.84906 7.11027C8.84848 7.11584 8.84707 7.12097 8.84496 7.1252C8.84284 7.12944 8.84008 7.13265 8.83692 7.13455C8.79686 7.15987 8.75256 7.16236 8.70399 7.14202C8.54067 7.1524 8.37724 7.1524 8.21371 7.14202H8.07363C8.02756 7.14866 7.98253 7.14597 7.93853 7.13393C7.93392 7.13268 7.92985 7.13004 7.92697 7.12643C7.9241 7.12282 7.92258 7.11845 7.92266 7.11401L7.92577 6.99665L7.75456 6.99416L7.6067 6.98638C7.46309 7.02788 7.41162 6.97382 7.4523 6.82419L7.46008 6.34169C7.45862 6.25225 7.47959 6.16914 7.52296 6.09235C7.52711 6.0853 7.53416 6.07824 7.54413 6.07118C7.56695 6.05541 7.57609 6.03393 7.57152 6.00675C7.57092 6.00312 7.57128 5.9989 7.57256 5.99435C7.57384 5.9898 7.57603 5.98502 7.57899 5.98029L7.60545 5.93702L7.60794 5.92145L7.61884 5.77919C7.61911 5.77555 7.62094 5.77203 7.62405 5.76921C7.62715 5.76638 7.63135 5.76442 7.63596 5.76363L7.75331 5.74246L7.76483 5.62759C7.76527 5.62277 7.76692 5.61828 7.76951 5.61484C7.77211 5.6114 7.7755 5.6092 7.77915 5.60861L7.92577 5.58557L7.93168 5.476C7.93184 5.47192 7.93356 5.46804 7.93651 5.46516C7.93945 5.46227 7.9434 5.46058 7.94756 5.46043ZM5.05411 5.71911C5.08628 5.71766 5.10434 5.69224 5.10828 5.64285C5.21183 5.59055 5.32348 5.57488 5.44323 5.59584L5.66891 5.60363L5.8616 5.61857C5.86682 5.61902 5.87169 5.62077 5.8755 5.62358C5.87931 5.62638 5.88186 5.63008 5.88277 5.63413L5.90892 5.74246L6.06581 5.75149L6.20589 5.75927C6.32771 5.72856 6.38177 5.77224 6.36807 5.89032C6.38177 5.89095 6.39484 5.89313 6.40729 5.89686C6.42016 5.9008 6.43303 5.90298 6.44589 5.9034C6.49611 5.90464 6.51168 5.92923 6.49259 5.97717C6.48864 5.98693 6.48678 5.99678 6.48698 6.00675C6.48781 6.04265 6.48045 6.08146 6.46488 6.12317C6.46145 6.13264 6.45453 6.14088 6.44527 6.14652L6.37056 6.19383L6.34472 6.7775C6.35427 6.83768 6.34939 6.89579 6.33009 6.95182C6.32856 6.95604 6.32583 6.95987 6.32213 6.96297C6.31844 6.96606 6.3139 6.96833 6.30893 6.96957C6.27344 6.97808 6.2421 6.99447 6.21492 7.01875C6.21409 7.06628 6.2006 7.1083 6.17445 7.14482C6.17188 7.14832 6.1682 7.15108 6.16378 7.15283C6.15936 7.15458 6.15435 7.15525 6.14923 7.15479C6.07867 7.14814 6.04827 7.18342 6.05803 7.26062C6.05863 7.2652 6.05828 7.26985 6.05701 7.2743C6.05573 7.27874 6.05356 7.28288 6.05061 7.28646C6.04767 7.29005 6.04402 7.293 6.03989 7.29514C6.03576 7.29728 6.03123 7.29857 6.02659 7.29891L5.91016 7.30794C5.89273 7.32579 5.88982 7.35785 5.90145 7.40413C5.90292 7.41001 5.90305 7.41615 5.90183 7.42208C5.9006 7.42801 5.89807 7.43357 5.8944 7.43835C5.89074 7.44312 5.88605 7.44698 5.88069 7.44962C5.87533 7.45227 5.86944 7.45364 5.86347 7.45362L5.73117 7.45331C5.53215 7.46722 5.33303 7.46732 5.1338 7.45362C5.13136 7.45346 5.12896 7.45291 5.12675 7.45198C5.12454 7.45106 5.12257 7.4498 5.12094 7.44826C5.11932 7.44672 5.11808 7.44494 5.11729 7.44303C5.11651 7.44112 5.11619 7.43911 5.11637 7.43713L5.12353 7.3621C5.12473 7.35052 5.12179 7.33897 5.11533 7.32995C5.10887 7.32093 5.09941 7.31515 5.08898 7.31385L4.98532 7.30016C4.98043 7.29947 4.97591 7.29729 4.97248 7.29397C4.96904 7.29065 4.96688 7.28637 4.96633 7.28179L4.9517 7.15105L4.8359 7.1498C4.83121 7.14979 4.82671 7.14844 4.82307 7.14598C4.81942 7.14351 4.81682 7.14005 4.81567 7.13611C4.80176 7.08983 4.80124 7.04293 4.81411 6.9954L4.80384 6.85532L4.698 6.84536C4.69283 6.84481 4.68802 6.84324 4.68408 6.84083C4.68014 6.83843 4.67721 6.83526 4.67558 6.83167C4.6596 6.79514 4.65411 6.74917 4.65909 6.69376C4.67714 6.49765 4.6843 6.3777 4.68057 6.33391C4.67558 6.27622 4.69167 6.23689 4.72882 6.21593C4.73522 6.21253 4.74567 6.21119 4.75808 6.2122C4.78215 6.21407 4.7974 6.20276 4.80384 6.17827L4.81411 5.90589L4.81286 5.78324C4.81281 5.77942 4.81363 5.77564 4.81528 5.77217C4.81692 5.76871 4.81934 5.76566 4.82236 5.76324C4.82537 5.76082 4.82891 5.75909 4.83271 5.75819C4.83651 5.75729 4.84047 5.75723 4.8443 5.75802C4.8773 5.76487 4.90521 5.75875 4.92804 5.73966C4.9371 5.73201 4.94652 5.7273 4.95481 5.72627C4.97577 5.72358 5.00887 5.72119 5.05411 5.71911Z" fill="white"/>
<path d="M9 22.75C4.73 22.75 1.25 19.27 1.25 15C1.25 14.59 1.59 14.25 2 14.25C2.41 14.25 2.75 14.59 2.75 15C2.75 17.96 4.81 20.44 7.58 21.09L7.31 20.64C7.1 20.28 7.21 19.82 7.57 19.61C7.92 19.4 8.39 19.51 8.6 19.87L9.65 21.62C9.79 21.85 9.79 22.14 9.66 22.37C9.52 22.6 9.27 22.75 9 22.75Z" fill="white"/>
<path d="M22.0004 9.75C21.5904 9.75 21.2504 9.41 21.2504 9C21.2504 6.04 19.1904 3.56 16.4204 2.91L16.6904 3.36C16.9004 3.72 16.7904 4.18 16.4304 4.39C16.0804 4.6 15.6104 4.49 15.4004 4.13L14.3504 2.38C14.2104 2.15 14.2104 1.86 14.3404 1.63C14.4804 1.4 14.7304 1.25 15.0004 1.25C19.2704 1.25 22.7504 4.73 22.7504 9C22.7504 9.41 22.4104 9.75 22.0004 9.75Z" fill="white"/>
<path d="M16.9198 11.8496C14.1198 11.8496 11.8398 14.1196 11.8398 16.9296C11.8398 19.7296 14.1098 22.0096 16.9198 22.0096C19.7198 22.0096 21.9998 19.7396 21.9998 16.9296C21.9998 14.1196 19.7298 11.8496 16.9198 11.8496ZM19.3998 19.3396C19.0298 19.5196 18.5798 19.3796 18.3898 18.9996L18.2198 18.6596H15.6298L15.4598 18.9996C15.3298 19.2596 15.0598 19.4096 14.7898 19.4096C14.6798 19.4096 14.5598 19.3796 14.4598 19.3296C14.0898 19.1396 13.9398 18.6896 14.1198 18.3196L16.2598 14.0496C16.3898 13.7996 16.6498 13.6396 16.9298 13.6396C17.2098 13.6396 17.4698 13.7996 17.5998 14.0596L19.7398 18.3296C19.9198 18.6996 19.7698 19.1496 19.3998 19.3396Z" fill="white"/>
<path d="M16.3809 17.1603H17.4709L16.9209 16.0703L16.3809 17.1603Z" fill="white"/>
</svg>
