<svg width="84" height="83" viewBox="0 0 84 83" fill="none" xmlns="http://www.w3.org/2000/svg">
<path d="M61.6943 0H50.855C37.5118 0 29.1731 8.26923 29.1731 21.5V38.2436H55.2344C56.9412 38.2436 58.3602 39.6526 58.3602 41.3462C58.3602 43.0397 56.9412 44.4487 55.2344 44.4487H29.1731V61.1923C29.1731 74.4231 37.5118 82.6923 50.855 82.6923H61.6547C74.9946 82.6923 83.3333 74.4231 83.3333 61.1923V21.5C83.3763 8.26923 75.0376 0 61.6943 0Z" fill="white"/>
<path d="M10.6632 38.2472L19.2929 29.6868C19.9181 29.0683 20.2092 28.2811 20.2092 27.4972C20.2092 26.7099 19.9181 25.8831 19.2929 25.3043C18.0856 24.1069 16.0845 24.1069 14.8738 25.3043L0.905481 39.1569C-0.301827 40.3542 -0.301827 42.3389 0.905481 43.5396L14.8738 57.3887C16.0845 58.5894 18.0856 58.5894 19.2929 57.3887C20.5035 56.1914 20.5035 54.2069 19.2929 53.0062L10.6632 44.4491H29.1763V38.2472H10.6632Z" fill="white"/>
</svg>
