<svg width="20" height="20" viewBox="0 0 20 20" fill="none" xmlns="http://www.w3.org/2000/svg">
<path d="M15.975 5.53335C15.6167 3.72502 14.2751 2.93335 12.4084 2.93335H5.09172C2.89172 2.93335 1.42505 4.03335 1.42505 6.60002V10.8917C1.42505 12.7417 2.18338 13.825 3.43338 14.2917C3.61672 14.3583 3.81672 14.4167 4.02505 14.45C4.35838 14.525 4.71672 14.5583 5.09172 14.5583H12.4167C14.6167 14.5583 16.0834 13.4583 16.0834 10.8917V6.60002C16.0834 6.20835 16.05 5.85835 15.975 5.53335ZM4.60838 10C4.60838 10.3417 4.32505 10.625 3.98338 10.625C3.64172 10.625 3.35838 10.3417 3.35838 10V7.50002C3.35838 7.15835 3.64172 6.87502 3.98338 6.87502C4.32505 6.87502 4.60838 7.15835 4.60838 7.50002V10ZM8.75005 10.95C7.53338 10.95 6.55005 9.96668 6.55005 8.75002C6.55005 7.53335 7.53338 6.55002 8.75005 6.55002C9.96672 6.55002 10.95 7.53335 10.95 8.75002C10.95 9.96668 9.96672 10.95 8.75005 10.95ZM14.1334 10C14.1334 10.3417 13.85 10.625 13.5084 10.625C13.1667 10.625 12.8834 10.3417 12.8834 10V7.50002C12.8834 7.15835 13.1667 6.87502 13.5084 6.87502C13.85 6.87502 14.1334 7.15835 14.1334 7.50002V10Z" fill="#E4FDE0"/>
<path d="M18.5834 9.10007V13.3917C18.5834 15.9584 17.1167 17.0667 14.9084 17.0667H7.59172C6.96672 17.0667 6.40838 16.9751 5.92505 16.7917C5.53338 16.6501 5.19172 16.4417 4.91672 16.1751C4.76672 16.0334 4.88338 15.8084 5.09172 15.8084H12.4084C15.4917 15.8084 17.3251 13.9751 17.3251 10.9001V6.60007C17.3251 6.40007 17.5501 6.27507 17.6917 6.42507C18.2584 7.02507 18.5834 7.90007 18.5834 9.10007Z" fill="#E4FDE0"/>
</svg>
