<svg width="12" height="12" viewBox="0 0 12 12" fill="none" xmlns="http://www.w3.org/2000/svg">
<path d="M8.095 1.16504H3.905C2.085 1.16504 1 2.25504 1 4.07504V8.26004C1 10.08 2.085 11.165 3.905 11.165H8.09C9.91 11.165 10.995 10.08 10.995 8.26004V4.07504C11 2.25504 9.915 1.16504 8.095 1.16504ZM5.785 8.56004C5.785 8.71004 5.71 8.84504 5.58 8.92504C5.51 8.97004 5.435 8.99004 5.355 8.99004C5.29 8.99004 5.225 8.97504 5.16 8.94504L3.41 8.07004C3.16 7.94004 3 7.68504 3 7.40004V5.74504C3 5.59504 3.075 5.46004 3.205 5.38004C3.335 5.30004 3.49 5.29504 3.625 5.36004L5.375 6.23504C5.63 6.36504 5.79 6.62004 5.79 6.90504V8.56004H5.785ZM5.68 5.88504L3.8 4.87004C3.665 4.79504 3.58 4.65004 3.58 4.48504C3.58 4.32504 3.665 4.17504 3.8 4.10004L5.68 3.08504C5.88 2.98004 6.115 2.98004 6.315 3.08504L8.195 4.10004C8.33 4.17504 8.415 4.32004 8.415 4.48504C8.415 4.65004 8.33 4.79504 8.195 4.87004L6.315 5.88504C6.215 5.94004 6.105 5.96504 5.995 5.96504C5.885 5.96504 5.78 5.94004 5.68 5.88504ZM9 7.40004C9 7.68504 8.84 7.94504 8.585 8.07004L6.835 8.94504C6.775 8.97504 6.71 8.99004 6.64 8.99004C6.56 8.99004 6.485 8.97004 6.415 8.92504C6.285 8.84504 6.21 8.71004 6.21 8.56004V6.90504C6.21 6.62004 6.37 6.36004 6.625 6.23504L8.375 5.36004C8.51 5.29504 8.665 5.30004 8.795 5.38004C8.925 5.46004 9 5.59504 9 5.74504V7.40004Z" fill="#E5E7EF"/>
</svg>
