<svg width="56" height="53" viewBox="0 0 56 53" fill="none" xmlns="http://www.w3.org/2000/svg">
<path d="M50.4811 19.0286C45.4918 19.0286 43.4522 15.5026 45.933 11.1728C47.3662 8.66562 46.5119 5.46701 44.0033 4.03478L39.2349 1.306C37.0572 0.00938308 34.2456 0.783383 32.9503 2.95984L32.647 3.48243C30.1662 7.81219 26.0869 7.81219 23.5783 3.48243L23.2753 2.95984C22.0349 0.783383 19.2234 0.00938308 17.0456 1.306L12.2772 4.03478C9.76869 5.46701 8.91431 8.69199 10.3475 11.2025C12.8561 15.5025 10.8162 19.0286 5.82724 19.0286C2.96046 19.0286 0.589844 21.3737 0.589844 24.268V29.117C0.589844 31.9848 2.93301 34.3564 5.82724 34.3564C10.8162 34.3564 12.8561 37.8824 10.3475 42.2121C8.91431 44.7194 9.76869 47.918 12.2772 49.3502L17.0456 52.079C19.2234 53.3756 22.0349 52.6016 23.3302 50.4251L23.6335 49.9026C26.1143 45.5728 30.1937 45.5728 32.7022 49.9026L33.0052 50.4251C34.3009 52.6016 37.1124 53.3756 39.2898 52.079L44.0585 49.3502C46.5668 47.918 47.4215 44.6929 45.9879 42.2121C43.4797 37.8824 45.5196 34.3564 50.5085 34.3564C53.3753 34.3564 55.7456 32.0113 55.7456 29.117V24.268C55.7182 21.4002 53.3753 19.0286 50.4811 19.0286ZM28.1542 35.6498C23.2201 35.6498 19.1956 31.6276 19.1956 26.6925C19.1956 21.7574 23.2201 17.7352 28.1542 17.7352C33.0879 17.7352 37.1124 21.7574 37.1124 26.6925C37.1124 31.6276 33.0879 35.6498 28.1542 35.6498Z" fill="white"/>
</svg>
