<svg width="56" height="57" viewBox="0 0 56 57" fill="none" xmlns="http://www.w3.org/2000/svg">
<path d="M13.7822 0H11.0259C2.75663 0 0 4.9318 0 11.0246V13.7799V52.3707C0 54.6596 2.59124 55.9529 4.41047 54.5769L9.12394 51.0476C10.2264 50.2206 11.7701 50.3298 12.7624 51.3221L17.3379 55.9265C18.4129 57.0015 20.1769 57.0015 21.2519 55.9265L25.8827 51.2957C26.8475 50.3298 28.3912 50.2206 29.4662 51.0476L34.1797 54.5769C35.9989 55.9265 38.5899 54.6299 38.5899 52.3707V5.51067C38.5899 2.48082 41.0706 0 44.1028 0H13.7822ZM10.9432 33.1034C9.42692 33.1034 8.18654 31.863 8.18654 30.348C8.18654 28.8298 9.42692 27.5895 10.9432 27.5895C12.4591 27.5895 13.6995 28.8298 13.6995 30.348C13.6995 31.863 12.4591 33.1034 10.9432 33.1034ZM10.9432 22.0788C9.42692 22.0788 8.18654 20.8385 8.18654 19.3202C8.18654 17.8053 9.42692 16.5649 10.9432 16.5649C12.4591 16.5649 13.6995 17.8053 13.6995 19.3202C13.6995 20.8385 12.4591 22.0788 10.9432 22.0788ZM27.5643 32.4153H19.2951C18.1648 32.4153 17.2278 31.476 17.2278 30.348C17.2278 29.2168 18.1648 28.2807 19.2951 28.2807H27.5643C28.6942 28.2807 29.6316 29.2168 29.6316 30.348C29.6316 31.476 28.6942 32.4153 27.5643 32.4153ZM27.5643 21.3875H19.2951C18.1648 21.3875 17.2278 20.4515 17.2278 19.3202C17.2278 18.1923 18.1648 17.2529 19.2951 17.2529H27.5643C28.6942 17.2529 29.6316 18.1923 29.6316 19.3202C29.6316 20.4515 28.6942 21.3875 27.5643 21.3875Z" fill="white"/>
<path d="M44.13 0V4.13462C45.9492 4.13462 47.6857 4.87897 48.9536 6.11935C50.2767 7.46889 50.9934 9.20533 50.9934 11.0246V17.6963C50.9934 19.7338 50.0838 20.6731 48.0165 20.6731H42.7242V5.54034C42.7242 4.76634 43.358 4.13462 44.13 4.13462V0ZM44.13 0C41.0704 0 38.5896 2.48073 38.5896 5.54034V24.8077H48.0165C52.3714 24.8077 55.1281 22.0492 55.1281 17.6963V11.0246C55.1281 7.99141 53.8877 5.2362 51.9031 3.22512C49.8907 1.24051 47.1618 0.0264615 44.13 0C44.1574 0 44.13 0 44.13 0Z" fill="white"/>
</svg>
