<svg width="12" height="12" viewBox="0 0 12 12" fill="none" xmlns="http://www.w3.org/2000/svg">
<path d="M10.2406 4.21363L7.78757 1.75719C7.27315 1.24205 6.56379 0.965495 5.83818 1.00345L3.1307 1.13359C2.04771 1.1824 1.18673 2.04459 1.13258 3.12369L1.00262 5.83498C0.97013 6.56161 1.24088 7.27197 1.7553 7.78711L4.20828 10.2435C5.21546 11.2522 6.85078 11.2522 7.86338 10.2435L10.2406 7.86303C11.2531 6.85985 11.2531 5.22223 10.2406 4.21363ZM4.64689 6.20914C3.79133 6.20914 3.08738 5.50963 3.08738 4.64743C3.08738 3.78524 3.79133 3.08573 4.64689 3.08573C5.50246 3.08573 6.2064 3.78524 6.2064 4.64743C6.2064 5.50963 5.50246 6.20914 4.64689 6.20914ZM8.99511 6.83274L6.82912 9.00178C6.7479 9.08311 6.64501 9.12107 6.54213 9.12107C6.43925 9.12107 6.33636 9.08311 6.25514 9.00178C6.0981 8.84452 6.0981 8.58424 6.25514 8.42698L8.42112 6.25794C8.57816 6.10069 8.83808 6.10069 8.99511 6.25794C9.15214 6.4152 9.15214 6.67548 8.99511 6.83274Z" fill="white"/>
</svg>
