<svg width="200" height="124" viewBox="0 0 200 124" fill="none" xmlns="http://www.w3.org/2000/svg">
<path d="M189.218 0.653218H135.581C108 0.653212 119.649 0.653199 99.9935 0.653199C80.3469 0.653199 98.5 0.653199 64.4152 0.653218H10.7824C4.8315 0.653218 0 5.48431 0 11.4348V113.198C0 119.148 4.8315 123.98 10.7824 123.98H189.218C195.169 123.98 200 119.148 200 113.198V11.4348C200 5.48431 195.169 0.653218 189.218 0.653218ZM174.441 48.9872C174.441 51.7467 172.201 53.9864 169.441 53.9864H117.572C114.811 53.9864 112.573 51.7471 112.573 48.9872C112.573 46.227 114.811 43.9857 117.572 43.9857H169.441C172.201 43.9857 174.441 46.2266 174.441 48.9872ZM148.334 17.3201C151.094 17.3201 153.334 19.5594 153.334 22.3193C153.334 25.0791 151.094 27.32 148.334 27.32H117.573C114.811 27.32 112.573 25.0795 112.573 22.3193C112.573 19.5598 114.811 17.3201 117.573 17.3201H148.334ZM97.0507 94.593C97.0507 102.371 90.7163 108.706 82.9387 108.706H29.2465C21.4656 108.706 15.1313 102.371 15.1313 94.593V30.0398C15.1313 22.2618 21.4656 15.9275 29.2465 15.9275H82.9383C90.7159 15.9275 97.0502 22.2618 97.0502 30.0398L97.0507 94.593ZM181.668 107.32H150.907C148.145 107.32 145.906 105.081 145.906 102.32C145.906 99.5597 148.144 97.3193 150.907 97.3193H181.668C184.427 97.3193 186.667 99.5593 186.667 102.32C186.667 105.08 184.427 107.32 181.668 107.32ZM181.668 80.6531H117.572C114.811 80.6531 112.573 78.4123 112.573 75.6524C112.573 72.8929 114.811 70.6533 117.572 70.6533H181.667C184.427 70.6533 186.667 72.8925 186.667 75.6524C186.667 78.4123 184.427 80.6531 181.668 80.6531Z" fill="black"/>
<path d="M82.9383 22.5933H29.2465C25.1385 22.5933 21.7976 25.9342 21.7976 30.0398V94.593C21.7976 98.7018 25.1385 102.039 29.2465 102.039H82.9383C87.0439 102.039 90.384 98.7018 90.384 94.593V30.0398C90.384 25.9342 87.0439 22.5933 82.9383 22.5933ZM56.0886 28.6094C65.5852 28.6094 73.3008 38.7526 73.3008 51.2597C73.3008 63.7643 65.5852 73.9212 56.0886 73.9212C46.5899 73.9212 38.8735 63.7643 38.8735 51.2597C38.8739 38.7522 46.5899 28.6094 56.0886 28.6094ZM81.0351 94.4104C80.508 95.0399 79.7408 95.3978 78.9254 95.3978H33.2565C32.442 95.3978 31.6671 95.0351 31.1473 94.4104C30.6181 93.7857 30.406 92.957 30.5485 92.157C31.6926 85.7308 35.1687 80.2551 40.0147 76.4475C40.1431 76.3512 40.2556 76.2127 40.3977 76.0957C44.7527 80.1377 50.183 82.5806 56.089 82.5806C61.986 82.5806 67.4163 80.1381 71.7915 76.0957C71.909 76.2127 72.0324 76.3512 72.1749 76.4475C76.9996 80.2547 80.4691 85.7308 81.6278 92.157C81.7719 92.9634 81.557 93.7857 81.0351 94.4104Z" fill="black"/>
</svg>
