<svg width="784" height="717" viewBox="0 0 784 717" fill="none" xmlns="http://www.w3.org/2000/svg">
<path fill-rule="evenodd" clip-rule="evenodd" d="M384.164 1.08484C354.694 6.74084 320.647 22.6748 296.786 41.9748C275.342 59.3198 245.551 93.5328 205.223 147.128C148.569 222.419 70.8453 341.684 11.9793 443.655C5.25232 455.308 1.47532 462.978 0.712321 466.538C-2.32268 480.688 4.50931 494.642 17.9913 501.832C21.6003 503.756 23.8043 504.123 31.7863 504.125C40.4513 504.128 41.7573 503.867 46.6453 501.16C53.7093 497.247 56.7393 493.503 66.2263 476.968C119.006 384.971 202.061 257.083 253.159 189.128C318.902 101.696 347.641 75.7088 387.773 67.4028C400.2 64.8298 419.557 65.3559 430.649 68.5658C453.166 75.0838 471.685 87.2718 493.216 109.741C517.844 135.442 565.939 206.654 607.278 278.628C642.148 339.339 683.685 423.798 700.966 469.128C722.221 524.884 726.293 575.928 711.774 604.628C700.167 627.573 676.742 642.056 640.389 648.763C630.298 650.625 623.364 650.886 564.286 651.632C472.828 652.785 221.242 652.784 197.468 651.63C158.052 649.716 137.442 645.472 116.286 634.915C96.3923 624.988 87.8303 615.273 87.8303 602.628C87.8303 591.207 92.8053 584.437 118.267 561.213C152.749 529.762 183.326 499.628 226.901 454.151C228.775 452.195 229.486 452.863 292.541 515.793C327.601 550.784 357.726 580.136 359.486 581.02C363.454 583.013 366.825 583.056 371.336 581.171C373.617 580.219 403.81 550.823 458.653 496.159L542.485 412.603L543.135 421.769C543.493 426.811 543.789 437.954 543.792 446.532C543.798 463.862 544.575 468.142 548.365 471.702C550.918 474.1 551.173 474.128 570.617 474.128C591.862 474.128 595.126 473.441 597.992 468.368C599.794 465.177 600.14 439.44 599.277 372.878L598.547 316.628H519.77H440.994L440.261 331.294C439.252 351.47 439.993 363.082 442.506 366.479C446.375 371.709 448.234 372.042 476.656 372.605L503.027 373.128L434.893 440.878C397.42 478.14 366.389 508.628 365.936 508.628C365.482 508.628 336.125 479.904 300.697 444.796C265.27 409.689 235.301 380.439 234.1 379.796C231.247 378.269 226.885 378.367 223.894 380.025C220.6 381.85 60.8333 539.577 48.9073 552.777C34.7413 568.456 28.9773 579.07 26.7173 593.637C23.9513 611.465 30.0363 633.59 42.7733 652.015C49.4693 661.701 65.0733 676.738 75.7863 683.827C98.8973 699.121 126.485 708.815 159.024 713.075C185.828 716.584 208.702 716.821 420.786 715.784C645.018 714.689 633.721 715.004 661.286 709.07C702.546 700.189 735.953 680.761 756.316 653.807C768.255 638.003 777.074 617.44 781.483 595.128C784.249 581.127 783.957 539.942 780.962 521.628C775.105 485.815 763.36 449.788 742.329 403.128C731.899 379.988 697.47 310.539 684.822 287.128C639.448 203.141 581.754 114.168 546.911 74.4458C512.176 34.8488 478.046 12.2818 438.786 2.95384C430.065 0.881842 425.152 0.396842 409.786 0.088842C396.872 -0.170158 389.136 0.129842 384.164 1.08484Z" fill="#FFE7AB"/>
</svg>
