<svg width="24" height="24" viewBox="0 0 24 24" fill="none" xmlns="http://www.w3.org/2000/svg">
<path d="M3 9V7C3 4 5 2 8 2H18C21 2 23 4 23 7V9" stroke="#292D32" stroke-width="1.5" stroke-miterlimit="10" stroke-linecap="round" stroke-linejoin="round"/>
<path d="M3 15V17C3 20 5 22 8 22H18C21 22 23 20 23 17V15" stroke="#292D32" stroke-width="1.5" stroke-miterlimit="10" stroke-linecap="round" stroke-linejoin="round"/>
<path d="M7.69995 9.26001L13 12.33L18.2599 9.28003" stroke="#292D32" stroke-width="1.5" stroke-linecap="round" stroke-linejoin="round"/>
<path d="M13 17.7701V12.3201" stroke="#292D32" stroke-width="1.5" stroke-linecap="round" stroke-linejoin="round"/>
<path d="M11.76 6.29006L8.55998 8.07009C7.83998 8.47009 7.23999 9.48008 7.23999 10.3101V13.7001C7.23999 14.5301 7.82998 15.5401 8.55998 15.9401L11.76 17.7201C12.44 18.1001 13.56 18.1001 14.25 17.7201L17.45 15.9401C18.17 15.5401 18.77 14.5301 18.77 13.7001V10.3101C18.77 9.48008 18.18 8.47009 17.45 8.07009L14.25 6.29006C13.56 5.90006 12.44 5.90006 11.76 6.29006Z" stroke="#292D32" stroke-width="1.5" stroke-linecap="round" stroke-linejoin="round"/>
</svg>
