<svg width="91" height="91" viewBox="0 0 91 91" fill="none" xmlns="http://www.w3.org/2000/svg">
<path d="M45.3846 56.7308C51.6509 56.7308 56.7308 51.6509 56.7308 45.3846C56.7308 39.1183 51.6509 34.0385 45.3846 34.0385C39.1183 34.0385 34.0385 39.1183 34.0385 45.3846C34.0385 51.6509 39.1183 56.7308 45.3846 56.7308Z" stroke="white" stroke-width="4" stroke-miterlimit="10" stroke-linecap="round" stroke-linejoin="round"/>
<path d="M7.56409 48.7128V42.0564C7.56409 38.123 10.7788 34.8705 14.75 34.8705C21.5955 34.8705 24.3942 30.0294 20.9525 24.0916C18.9859 20.6878 20.1583 16.2628 23.6 14.2961L30.1429 10.5519C33.1308 8.77431 36.9884 9.83328 38.766 12.8211L39.182 13.5397C42.5859 19.4775 48.1833 19.4775 51.625 13.5397L52.041 12.8211C53.8186 9.83328 57.6763 8.77431 60.6641 10.5519L67.207 14.2961C70.6487 16.2628 71.8211 20.6878 69.8545 24.0916C66.4128 30.0294 69.2115 34.8705 76.057 34.8705C79.9904 34.8705 83.2429 38.0852 83.2429 42.0564V48.7128C83.2429 52.6461 80.0282 55.8987 76.057 55.8987C69.2115 55.8987 66.4128 60.7397 69.8545 66.6775C71.8211 70.1192 70.6487 74.5064 67.207 76.473L60.6641 80.2173C57.6763 81.9948 53.8186 80.9359 52.041 77.948L51.625 77.2294C48.2211 71.2916 42.6237 71.2916 39.182 77.2294L38.766 77.948C36.9884 80.9359 33.1308 81.9948 30.1429 80.2173L23.6 76.473C20.1583 74.5064 18.9859 70.0814 20.9525 66.6775C24.3942 60.7397 21.5955 55.8987 14.75 55.8987C10.7788 55.8987 7.56409 52.6461 7.56409 48.7128Z" stroke="white" stroke-width="4" stroke-miterlimit="10" stroke-linecap="round" stroke-linejoin="round"/>
</svg>
